<?xml version="1.0" encoding="UTF-8"?>
<svg id="_图层_1" data-name="图层 1" xmlns="http://www.w3.org/2000/svg" xmlns:xlink="http://www.w3.org/1999/xlink" viewBox="0 0 500 500">
  <defs>
    <style>
      .cls-1 {
        fill: url(#_未命名的渐变_24);
      }

      .cls-1, .cls-2, .cls-3, .cls-4 {
        stroke-width: 0px;
      }

      .cls-2 {
        fill: url(#_未命名的渐变_24-3);
      }

      .cls-3 {
        fill: url(#_未命名的渐变_24-4);
      }

      .cls-4 {
        fill: url(#_未命名的渐变_24-2);
      }
    </style>
    <linearGradient id="_未命名的渐变_24" data-name="未命名的渐变 24" x1="407" y1="168.59" x2="199.38" y2="183.87" gradientUnits="userSpaceOnUse">
      <stop offset="0" stop-color="#ed1c24"/>
      <stop offset="1" stop-color="#a34fe4"/>
    </linearGradient>
    <linearGradient id="_未命名的渐变_24-2" data-name="未命名的渐变 24" x1="415.13" y1="278.98" x2="207.51" y2="294.27" xlink:href="#_未命名的渐变_24"/>
    <linearGradient id="_未命名的渐变_24-3" data-name="未命名的渐变 24" x1="418.99" y1="331.45" x2="211.37" y2="346.73" xlink:href="#_未命名的渐变_24"/>
    <linearGradient id="_未命名的渐变_24-4" data-name="未命名的渐变 24" x1="422.27" y1="376.04" x2="214.65" y2="391.32" xlink:href="#_未命名的渐变_24"/>
  </defs>
  <path class="cls-1" d="m324.08,201.95c-15.77,2.02-29.87,4.41-44.07,5.55-50.03,4.02-99.17.19-145.82-19.99-9.56-4.14-18.81-10.16-26.53-17.16-12.5-11.35-12.12-28.6-.55-40.96,12.6-13.45,29.22-19.78,46.26-24.85,24.58-7.31,49.79-10.69,75.45-11.87,34.3-1.59,68.18.8,101.61,8.42,20.03,4.57,39.66,10.49,56.54,23.04,11.93,8.87,17.01,20.61,12.59,34.77-6.15,19.73-13.33,39.15-20.57,58.51-1.33,3.55-4.52,7.04-7.77,9.13-39.45,25.42-82.4,40.52-129.47,43.42-19.47,1.2-38.71,0-57.86-3.59-5.47-1.02-9.45-3.71-12.68-8.26-11.98-16.87-24.18-33.57-36.3-50.34-.76-1.06-1.78-2.04-2.18-3.23-.6-1.76-.75-3.67-1.09-5.51,1.75.11,3.6-.14,5.22.38,10.12,3.21,20.02,7.2,30.28,9.8,36.1,9.12,72.65,9.92,109.29,3.91,13.22-2.17,26.24-5.49,39.34-8.38,2.32-.51,4.53-1.49,8.3-2.77Zm-58.4-15.32c27.76-.48,55.09-3.63,80.44-15.84,6.2-2.98,11.79-7.84,16.65-12.82,5.94-6.09,5.73-14.55-.15-20.71-3.92-4.11-8.41-8.53-13.53-10.47-13.87-5.26-27.97-10.48-42.44-13.51-27.66-5.79-55.93-7.02-84-4.27-17.69,1.74-35.33,5.5-52.54,10.07-8.08,2.15-15.81,7.49-22.38,12.96-6.73,5.6-5.88,14.11,1.34,19.16,5.7,3.99,12.17,7.79,18.84,9.33,14.83,3.42,29.91,6.31,45.05,7.7,21.95,2.02,44.01,1.41,65.53-4.24,6.04-1.59,12.04-4.13,17.38-7.35,6.03-3.64,5.72-9.6-.22-13.5-2.92-1.92-6.24-3.52-9.6-4.43-23.19-6.24-46.7-7.23-70.34-3.28-2.98.5-5.56,3.38-8.33,5.16,2.88,1.28,5.7,3.46,8.66,3.68,11.14.83,22.35.73,33.48,1.6,4.06.32,10.67-.5,10.76,5.3.08,5.01-6.11,5.54-10.17,5.7-13.95.55-28.01,1.6-41.84.39-10.94-.96-21.97-4-32.28-7.92-9.53-3.62-9.84-13.13-1.05-18.34,5.68-3.37,12.08-6.06,18.5-7.55,34.09-7.92,68.39-7.48,102.65-1.07,12.68,2.37,25.03,6.1,35.99,13.28,10.98,7.2,12.07,17.12,2.61,26.01-3.48,3.26-7.64,5.99-11.88,8.22-17.89,9.4-37.35,13.55-57.11,16.76Z"/>
  <path class="cls-4" d="m215.95,321.39c-9.54,2.42-16.06-3.12-19.59-14.64-2.27-7.42-6.25-14.32-9.43-21.47-2.86-6.43-1.7-8.13,5.25-7.86,12.47.48,24.94,1.39,37.4,1.32,35.83-.19,70.23-7.66,103.45-20.99,2.86-1.15,6.23-1,9.37-1.45-.58,3.15-.72,6.46-1.82,9.42-2.26,6.11-5.19,11.96-7.54,18.04-2.69,6.94-7.88,10.95-14.42,13.9-31.8,14.35-64.99,22.63-102.67,23.72Z"/>
  <path class="cls-2" d="m207.25,338.84c-.93-4.98,1.53-7.33,6.32-7.55,26.79-1.24,52.85-6.32,78.33-14.64,1.53-.5,3.45.2,5.18.35-.17,1.76.23,3.88-.61,5.22-6.06,9.6-12.14,19.2-18.74,28.43-1.93,2.7-5.24,5.16-8.4,6.1-15.86,4.74-31.88,8.98-47.87,13.29-1.95.52-4.07.42-6.11.56-4.36.31-6.65-1.7-6.85-6.11-.39-8.55-.82-17.1-1.24-25.66Z"/>
  <path class="cls-3" d="m247,374.97c-1.65,2.16-2.45,3.4-3.44,4.47-10.31,11.19-22.55,19.91-35.66,27.45-1.47.84-3.45.78-5.2,1.13-.08-1.9-.34-3.81-.2-5.69,1.12-15.63,9.4-23.82,25.18-25.01,4.9-.37,9.63-2.73,14.52-3.82,1.24-.28,2.78.81,4.8,1.48Z"/>
</svg>